# xmcd
#
# Track frame offsets:
#  182
#  25157
#  43542
#  64465
#  80830
#  96610
#  119072
#  137965
#  151387
#  171875
#  189187
#  207932
#  220837
#  236967
#  254145
#
# Disc length: 3665 seconds
#
# Revision: 0
# Processed by: cddbd v1.4PL0 Copyright (c) Steve Scherf et al.
# Submitted via: AltoMP3_Maker 3.0
#
DISCID=ed0e4f0f
DTITLE=李文等 - 世纪新歌榜
DYEAR=1900
DGENRE=
TTITLE0=想你的365天
TTITLE1=天地在我心
TTITLE2=爱就一个字
TTITLE3=有一个姑娘
TTITLE4=自从有了你
TTITLE5=我可以抱你吗
TTITLE6=给我感觉
TTITLE7=夏天的故事
TTITLE8=干脆
TTITLE9=情人
TTITLE10=今天到永远
TTITLE11=天之骄子
TTITLE12=花正好
TTITLE13=心只有你
TTITLE14=雨一直下
EXTD=
EXTT0=
EXTT1=
EXTT2=
EXTT3=
EXTT4=
EXTT5=
EXTT6=
EXTT7=
EXTT8=
EXTT9=
EXTT10=
EXTT11=
EXTT12=
EXTT13=
EXTT14=
PLAYORDER=
